<?xml version="1.0" standalone="no"?>
<!DOCTYPE svg PUBLIC "-//W3C//DTD SVG 20010904//EN"
 "http://www.w3.org/TR/2001/REC-SVG-20010904/DTD/svg10.dtd">
<svg version="1.0" xmlns="http://www.w3.org/2000/svg"
 width="512.000000pt" height="512.000000pt" viewBox="0 0 512.000000 512.000000"
 preserveAspectRatio="xMidYMid meet">

<g transform="translate(0.000000,512.000000) scale(0.100000,-0.100000)"
fill="#f5f9ff" stroke="none">
<path d="M2495 4626 c-37 -17 -70 -52 -84 -89 -8 -19 -11 -267 -11 -763 l0
-734 -181 0 c-146 0 -188 -3 -215 -16 -71 -34 -108 -118 -83 -188 17 -49 511
-743 548 -771 36 -27 125 -33 168 -10 24 13 103 116 295 384 144 201 266 382
271 401 14 49 2 103 -30 141 -45 53 -73 59 -272 59 l-181 0 -2 749 c-3 739 -3
750 -24 777 -11 15 -32 37 -46 47 -34 25 -113 32 -153 13z"/>
<path d="M4004 2545 c-202 -44 -378 -177 -475 -358 -56 -105 -39 -196 47 -244
45 -26 91 -29 137 -9 38 16 64 44 101 109 65 114 188 191 306 191 122 1 242
-79 303 -203 26 -54 33 -79 35 -146 3 -76 2 -82 -29 -129 -35 -53 -89 -97
-159 -130 l-45 -21 -1902 -5 c-1901 -5 -1902 -5 -1929 -26 -53 -39 -69 -71
-69 -134 0 -63 16 -95 69 -134 l27 -21 1882 -3 c2115 -3 1971 -7 2132 72 143
71 265 198 322 336 29 71 26 291 -5 385 -79 237 -271 412 -514 470 -76 18
-152 18 -234 0z"/>
<path d="M415 1106 c-67 -29 -105 -106 -91 -181 9 -47 59 -102 104 -115 26 -8
689 -10 2154 -8 l2117 3 27 21 c53 39 69 71 69 134 0 63 -16 95 -69 134 l-27
21 -2127 2 c-1753 2 -2132 0 -2157 -11z"/>
<path d="M415 626 c-67 -29 -105 -106 -91 -181 9 -47 59 -102 104 -115 26 -8
689 -10 2154 -8 l2117 3 27 21 c53 39 69 71 69 134 0 63 -16 95 -69 134 l-27
21 -2127 2 c-1753 2 -2132 0 -2157 -11z"/>
</g>
</svg>
